<?xml version="1.0" encoding="utf-8"?>
<!-- Generator: Adobe Illustrator 21.1.0, SVG Export Plug-In . SVG Version: 6.00 Build 0)  -->
<svg version="1.1" id="Layer_1" xmlns="http://www.w3.org/2000/svg" xmlns:xlink="http://www.w3.org/1999/xlink" x="0px" y="0px"
	 viewBox="0 0 80.2 44.2" style="enable-background:new 0 0 80.2 44.2;" xml:space="preserve">
<style type="text/css">
	.st0{fill:#FAFAFA;}
	.st1{fill:#E2E2E2;}
	.st2{fill:none;stroke:#FF7900;stroke-width:3;stroke-miterlimit:10;}
	.st3{fill:#891280;}
	.st4{fill:#FFA100;}
	.st5{fill:#C90061;}
	.st6{fill:#FF6100;}
	.st7{fill:#FF1E00;}
	.st8{fill:#FF8000;}
	.st9{fill:#FF4100;}
	.st10{fill:#FF7900;}
	.st11{fill:#DB0033;}
	.st12{fill:#A90080;}
	.st13{fill:#FF9200;}
	.st14{fill:#FFA101;}
	.st15{fill:#C80061;}
	.st16{fill:#FF3E00;}
	
</style>
<g>
	<polygon class="st3" points="13.9,22.1 13.9,28.9 8.1,25.5 2.2,22.1 8.1,18.7 13.9,15.3 	"/>
	<polygon class="st4" points="13.9,8.5 13.9,15.3 8.1,11.9 2.2,8.5 8.1,5.1 13.9,1.7 	"/>
	<polygon class="st5" points="13.9,35.7 13.9,42.5 8.1,39.1 2.2,35.7 8.1,32.3 13.9,28.9 	"/>
	<polygon class="st6" points="37.4,22.1 37.4,28.9 31.6,25.5 25.7,22.1 31.6,18.7 37.4,15.3 	"/>
	<polygon class="st7" points="25.7,28.9 25.7,35.7 19.8,32.3 13.9,28.9 19.8,25.5 25.7,22.1 	"/>
	<polygon class="st8" points="25.7,15.3 25.7,22.1 19.8,18.7 13.9,15.3 19.8,11.9 25.7,8.5 	"/>
	<polygon class="st9" points="25.7,28.9 25.7,35.7 31.6,32.3 37.4,28.9 31.6,25.5 25.7,22.1 	"/>
	<polygon class="st10" points="25.7,15.3 25.7,22.1 31.6,18.7 37.4,15.3 31.6,11.9 25.7,8.5 	"/>
	<polygon class="st11" points="13.9,35.7 13.9,42.5 19.8,39.1 25.7,35.7 19.8,32.3 13.9,28.9 	"/>
	<polygon class="st12" points="2.2,28.9 2.2,35.7 8.1,32.3 13.9,28.9 8.1,25.5 2.2,22.1 	"/>
	<polygon class="st13" points="13.9,8.5 13.9,15.3 19.8,11.9 25.7,8.5 19.8,5.1 13.9,1.7 	"/>
	<polygon class="st14" points="62.1,8.5 62.1,15.3 68,11.9 73.8,8.5 68,5.1 62.1,1.7 	"/>
	<polygon class="st15" points="62.1,35.7 62.1,42.5 68,39.1 73.8,35.7 68,32.3 62.1,28.9 	"/>
	<polygon class="st6" points="38.6,22.1 38.6,28.9 44.5,25.5 50.3,22.1 44.5,18.7 38.6,15.3 	"/>
	<polygon class="st7" points="50.3,28.9 50.3,35.7 56.2,32.3 62.1,28.9 56.2,25.5 50.3,22.1 	"/>
	<polygon class="st8" points="50.3,15.3 50.3,22.1 56.2,18.7 62.1,15.3 56.2,11.9 50.3,8.5 	"/>
	<polygon class="st16" points="50.3,28.9 50.3,35.7 44.5,32.3 38.6,28.9 44.5,25.5 50.3,22.1 	"/>
	<polygon class="st10" points="50.3,15.3 50.3,22.1 44.5,18.7 38.6,15.3 44.5,11.9 50.3,8.5 	"/>
	<polygon class="st10" points="73.8,15.3 73.8,22.1 68,18.7 62.1,15.3 68,11.9 73.8,8.5 	"/>
	<polygon class="st11" points="62.1,35.7 62.1,42.5 56.2,39.1 50.3,35.7 56.2,32.3 62.1,28.9 	"/>
	<polygon class="st13" points="62.1,8.5 62.1,15.3 56.2,11.9 50.3,8.5 56.2,5.1 62.1,1.7 	"/>
</g>
</svg>
